solid top_noumotor_placaRGB
facet normal 0.9245837005984302 0.38097897656919694 0.0
  outer loop
    vertex 79.09963879432905 68.38819463975146 -6.499999999999998
    vertex 79.37492375809438 67.72011580556145 -1.4999999999999982
    vertex 79.37492375809438 67.72011580556145 -6.499999999999998
  endloop
endfacet
facet normal 0.9245837005984302 0.38097897656919694 0.0
  outer loop
    vertex 79.37492375809438 67.72011580556145 -1.4999999999999982
    vertex 79.09963879432905 68.38819463975146 -6.499999999999998
    vertex 79.09963879432905 68.38819463975146 -1.4999999999999982
  endloop
endfacet
facet normal 0.6102234843586668 0.7922293223159367 0.0
  outer loop
    vertex 78.08837922332513 69.40319100849645 -1.4999999999999982
    vertex 78.6608224123208 68.96226024823987 -6.499999999999998
    vertex 78.08837922332513 69.40319100849645 -6.499999999999998
  endloop
endfacet
facet normal 0.6102234843586668 0.7922293223159367 0.0
  outer loop
    vertex 78.6608224123208 68.96226024823987 -6.499999999999998
    vertex 78.08837922332513 69.40319100849645 -1.4999999999999982
    vertex 78.6608224123208 68.96226024823987 -1.4999999999999982
  endloop
endfacet
facet normal 0.130526192220053 0.9914448613738103 0.0
  outer loop
    vertex 76.2600076233257 65.36658287011909 -1.4999999999999982
    vertex 76.69999999999999 65.3086567748105 -6.499999999999998
    vertex 76.2600076233257 65.36658287011909 -6.499999999999998
  endloop
endfacet
facet normal 0.130526192220053 0.9914448613738103 0.0
  outer loop
    vertex 76.69999999999999 65.3086567748105 -6.499999999999998
    vertex 76.2600076233257 65.36658287011909 -1.4999999999999982
    vertex 76.69999999999999 65.3086567748105 -1.4999999999999982
  endloop
endfacet
facet normal 0.9916838898937174 0.12869756223513223 0.0
  outer loop
    vertex 79.37492375809438 67.72011580556145 -6.499999999999998
    vertex 79.4679170882661 67.0035522141674 -1.4999999999999982
    vertex 79.4679170882661 67.0035522141674 -6.499999999999998
  endloop
endfacet
facet normal 0.9916838898937174 0.12869756223513223 0.0
  outer loop
    vertex 79.4679170882661 67.0035522141674 -1.4999999999999982
    vertex 79.37492375809438 67.72011580556145 -6.499999999999998
    vertex 79.37492375809438 67.72011580556145 -1.4999999999999982
  endloop
endfacet
facet normal -0.7944746600541696 -0.6072973032476037 -0.0
  outer loop
    vertex 74.30036120567094 65.62911890986953 -1.4999999999999982
    vertex 74.7391775876792 65.05505330138112 -6.499999999999998
    vertex 74.7391775876792 65.05505330138112 -1.4999999999999982
  endloop
endfacet
facet normal -0.7944746600541696 -0.6072973032476037 -0.0
  outer loop
    vertex 74.7391775876792 65.05505330138112 -6.499999999999998
    vertex 74.30036120567094 65.62911890986953 -1.4999999999999982
    vertex 74.30036120567094 65.62911890986953 -6.499999999999998
  endloop
endfacet
facet normal -0.9916838898937174 -0.12869756223513223 -0.0
  outer loop
    vertex 73.93208291173389 67.01376133545361 -1.4999999999999982
    vertex 74.02507624190561 66.29719774405956 -6.499999999999998
    vertex 74.02507624190561 66.29719774405956 -1.4999999999999982
  endloop
endfacet
facet normal -0.9916838898937174 -0.12869756223513223 -0.0
  outer loop
    vertex 74.02507624190561 66.29719774405956 -6.499999999999998
    vertex 73.93208291173389 67.01376133545361 -1.4999999999999982
    vertex 73.93208291173389 67.01376133545361 -6.499999999999998
  endloop
endfacet
facet normal 0.9912024609278638 -0.132354378282499 0.0
  outer loop
    vertex 79.4679170882661 67.0035522141674 -6.499999999999998
    vertex 79.37228144307174 66.28733649014548 -1.4999999999999982
    vertex 79.37228144307174 66.28733649014548 -6.499999999999998
  endloop
endfacet
facet normal 0.9912024609278638 -0.132354378282499 0.0
  outer loop
    vertex 79.37228144307174 66.28733649014548 -1.4999999999999982
    vertex 79.4679170882661 67.0035522141674 -6.499999999999998
    vertex 79.4679170882661 67.0035522141674 -1.4999999999999982
  endloop
endfacet
facet normal -0.3843865866461095 -0.9231722222892937 -0.0
  outer loop
    vertex 75.97867971533498 64.33637533173875 -1.4999999999999982
    vertex 75.31162077667484 64.61412254112456 -6.499999999999998
    vertex 75.97867971533498 64.33637533173875 -6.499999999999998
  endloop
endfacet
facet normal -0.3843865866461095 -0.9231722222892937 -0.0
  outer loop
    vertex 75.31162077667484 64.61412254112456 -6.499999999999998
    vertex 75.97867971533498 64.33637533173875 -1.4999999999999982
    vertex 75.31162077667484 64.61412254112456 -1.4999999999999982
  endloop
endfacet
facet normal 0.6072973032476037 -0.7944746600541696 0.0
  outer loop
    vertex 78.65360347342937 65.0478343624897 -1.4999999999999982
    vertex 78.07953786494096 64.60901798048145 -6.499999999999998
    vertex 78.65360347342937 65.0478343624897 -6.499999999999998
  endloop
endfacet
facet normal 0.6072973032476037 -0.7944746600541696 0.0
  outer loop
    vertex 78.07953786494096 64.60901798048145 -6.499999999999998
    vertex 78.65360347342937 65.0478343624897 -1.4999999999999982
    vertex 78.07953786494096 64.60901798048145 -1.4999999999999982
  endloop
endfacet
facet normal -0.9245837005984302 -0.38097897656919694 -0.0
  outer loop
    vertex 74.02507624190561 66.29719774405956 -1.4999999999999982
    vertex 74.30036120567094 65.62911890986953 -6.499999999999998
    vertex 74.30036120567094 65.62911890986953 -1.4999999999999982
  endloop
endfacet
facet normal -0.9245837005984302 -0.38097897656919694 -0.0
  outer loop
    vertex 74.30036120567094 65.62911890986953 -6.499999999999998
    vertex 74.02507624190561 66.29719774405956 -1.4999999999999982
    vertex 74.02507624190561 66.29719774405956 -6.499999999999998
  endloop
endfacet
facet normal 0.9231722222892937 -0.3843865866461095 0.0
  outer loop
    vertex 79.37228144307174 66.28733649014548 -6.499999999999998
    vertex 79.09453423368595 65.62027755148536 -1.4999999999999982
    vertex 79.09453423368595 65.62027755148536 -6.499999999999998
  endloop
endfacet
facet normal 0.9231722222892937 -0.3843865866461095 0.0
  outer loop
    vertex 79.09453423368595 65.62027755148536 -1.4999999999999982
    vertex 79.37228144307174 66.28733649014548 -6.499999999999998
    vertex 79.37228144307174 66.28733649014548 -1.4999999999999982
  endloop
endfacet
facet normal -0.12869756223513223 0.9916838898937174 0.0
  outer loop
    vertex 75.98854096924904 69.68358053290488 -1.4999999999999982
    vertex 76.7051045606431 69.7765738630766 -6.499999999999998
    vertex 75.98854096924904 69.68358053290488 -6.499999999999998
  endloop
endfacet
facet normal -0.12869756223513223 0.9916838898937174 0.0
  outer loop
    vertex 76.7051045606431 69.7765738630766 -6.499999999999998
    vertex 75.98854096924904 69.68358053290488 -1.4999999999999982
    vertex 76.7051045606431 69.7765738630766 -1.4999999999999982
  endloop
endfacet
facet normal -0.9231722222892937 0.3843865866461095 0.0
  outer loop
    vertex 74.30546576631404 68.39703599813565 -1.4999999999999982
    vertex 74.02771855692824 67.72997705947553 -6.499999999999998
    vertex 74.02771855692824 67.72997705947553 -1.4999999999999982
  endloop
endfacet
facet normal -0.9231722222892937 0.3843865866461095 0.0
  outer loop
    vertex 74.02771855692824 67.72997705947553 -6.499999999999998
    vertex 74.30546576631404 68.39703599813565 -1.4999999999999982
    vertex 74.30546576631404 68.39703599813565 -6.499999999999998
  endloop
endfacet
facet normal 0.7933533402912338 0.6087614290087224 0.0
  outer loop
    vertex 75.22775681356646 66.15865677481051 -6.499999999999998
    vertex 75.49791847198287 65.80657524679337 -1.4999999999999982
    vertex 75.49791847198287 65.80657524679337 -6.499999999999998
  endloop
endfacet
facet normal 0.7933533402912338 0.6087614290087224 0.0
  outer loop
    vertex 75.49791847198287 65.80657524679337 -1.4999999999999982
    vertex 75.22775681356646 66.15865677481051 -6.499999999999998
    vertex 75.22775681356646 66.15865677481051 -1.4999999999999982
  endloop
endfacet
facet normal -0.923879532511286 -0.3826834323650919 -0.0
  outer loop
    vertex 78.17224318643353 67.8586567748105 -1.4999999999999982
    vertex 78.3420739046914 67.44864915148479 -6.499999999999998
    vertex 78.3420739046914 67.44864915148479 -1.4999999999999982
  endloop
endfacet
facet normal -0.923879532511286 -0.3826834323650919 -0.0
  outer loop
    vertex 78.3420739046914 67.44864915148479 -6.499999999999998
    vertex 78.17224318643353 67.8586567748105 -1.4999999999999982
    vertex 78.17224318643353 67.8586567748105 -6.499999999999998
  endloop
endfacet
facet normal 0.0 0.0 -1.0
  outer loop
    vertex 74.74639652657062 68.9694791871313 -6.499999999999998
    vertex 75.05792609530859 67.44864915148479 -6.499999999999998
    vertex 75.0 67.0086567748105 -6.499999999999998
  endloop
endfacet
facet normal 0.0 0.0 -1.0
  outer loop
    vertex 75.05792609530859 67.44864915148479 -6.499999999999998
    vertex 74.74639652657062 68.9694791871313 -6.499999999999998
    vertex 75.32046213505903 69.40829556913955 -6.499999999999998
  endloop
endfacet
facet normal 0.0 0.0 -1.0
  outer loop
    vertex 75.05792609530859 67.44864915148479 -6.499999999999998
    vertex 75.32046213505903 69.40829556913955 -6.499999999999998
    vertex 75.22775681356646 67.8586567748105 -6.499999999999998
  endloop
endfacet
facet normal 0.0 0.0 -1.0
  outer loop
    vertex 75.22775681356646 67.8586567748105 -6.499999999999998
    vertex 75.32046213505903 69.40829556913955 -6.499999999999998
    vertex 75.49791847198287 68.21073830282764 -6.499999999999998
  endloop
endfacet
facet normal 0.0 0.0 -1.0
  outer loop
    vertex 75.49791847198287 68.21073830282764 -6.499999999999998
    vertex 75.32046213505903 69.40829556913955 -6.499999999999998
    vertex 75.98854096924904 69.68358053290488 -6.499999999999998
  endloop
endfacet
facet normal 0.0 0.0 -1.0
  outer loop
    vertex 75.49791847198287 68.21073830282764 -6.499999999999998
    vertex 75.98854096924904 69.68358053290488 -6.499999999999998
    vertex 75.85 68.48089996124405 -6.499999999999998
  endloop
endfacet
facet normal 0.0 0.0 -1.0
  outer loop
    vertex 75.85 68.48089996124405 -6.499999999999998
    vertex 75.98854096924904 69.68358053290488 -6.499999999999998
    vertex 76.2600076233257 68.65073067950192 -6.499999999999998
  endloop
endfacet
facet normal 0.0 0.0 -1.0
  outer loop
    vertex 76.2600076233257 68.65073067950192 -6.499999999999998
    vertex 75.98854096924904 69.68358053290488 -6.499999999999998
    vertex 76.7051045606431 69.7765738630766 -6.499999999999998
  endloop
endfacet
facet normal 0.0 0.0 -1.0
  outer loop
    vertex 76.2600076233257 68.65073067950192 -6.499999999999998
    vertex 76.7051045606431 69.7765738630766 -6.499999999999998
    vertex 76.69999999999999 68.70865677481049 -6.499999999999998
  endloop
endfacet
facet normal 0.0 0.0 -1.0
  outer loop
    vertex 76.69999999999999 68.70865677481049 -6.499999999999998
    vertex 76.7051045606431 69.7765738630766 -6.499999999999998
    vertex 77.13999237667429 68.65073067950192 -6.499999999999998
  endloop
endfacet
facet normal 0.0 0.0 -1.0
  outer loop
    vertex 77.13999237667429 68.65073067950192 -6.499999999999998
    vertex 76.7051045606431 69.7765738630766 -6.499999999999998
    vertex 77.42132028466501 69.68093821788226 -6.499999999999998
  endloop
endfacet
facet normal 0.0 0.0 -1.0
  outer loop
    vertex 77.13999237667429 68.65073067950192 -6.499999999999998
    vertex 77.42132028466501 69.68093821788226 -6.499999999999998
    vertex 77.55 68.48089996124405 -6.499999999999998
  endloop
endfacet
facet normal 0.0 0.0 -1.0
  outer loop
    vertex 77.55 68.48089996124405 -6.499999999999998
    vertex 77.42132028466501 69.68093821788226 -6.499999999999998
    vertex 78.08837922332513 69.40319100849645 -6.499999999999998
  endloop
endfacet
facet normal 0.0 0.0 -1.0
  outer loop
    vertex 77.55 68.48089996124405 -6.499999999999998
    vertex 78.08837922332513 69.40319100849645 -6.499999999999998
    vertex 77.90208152801712 68.21073830282764 -6.499999999999998
  endloop
endfacet
facet normal 0.0 0.0 -1.0
  outer loop
    vertex 77.90208152801712 68.21073830282764 -6.499999999999998
    vertex 78.08837922332513 69.40319100849645 -6.499999999999998
    vertex 78.17224318643353 67.8586567748105 -6.499999999999998
  endloop
endfacet
facet normal 0.0 0.0 -1.0
  outer loop
    vertex 78.17224318643353 67.8586567748105 -6.499999999999998
    vertex 78.08837922332513 69.40319100849645 -6.499999999999998
    vertex 78.6608224123208 68.96226024823987 -6.499999999999998
  endloop
endfacet
facet normal 0.0 0.0 -1.0
  outer loop
    vertex 78.17224318643353 67.8586567748105 -6.499999999999998
    vertex 78.6608224123208 68.96226024823987 -6.499999999999998
    vertex 78.3420739046914 67.44864915148479 -6.499999999999998
  endloop
endfacet
facet normal 0.0 0.0 -1.0
  outer loop
    vertex 78.3420739046914 67.44864915148479 -6.499999999999998
    vertex 78.6608224123208 68.96226024823987 -6.499999999999998
    vertex 78.39999999999999 67.0086567748105 -6.499999999999998
  endloop
endfacet
facet normal 0.0 0.0 -1.0
  outer loop
    vertex 78.39999999999999 67.0086567748105 -6.499999999999998
    vertex 78.6608224123208 68.96226024823987 -6.499999999999998
    vertex 78.65360347342937 65.0478343624897 -6.499999999999998
  endloop
endfacet
facet normal 0.0 0.0 -1.0
  outer loop
    vertex 78.65360347342937 65.0478343624897 -6.499999999999998
    vertex 78.6608224123208 68.96226024823987 -6.499999999999998
    vertex 79.09453423368595 65.62027755148536 -6.499999999999998
  endloop
endfacet
facet normal 0.0 0.0 -1.0
  outer loop
    vertex 79.09453423368595 65.62027755148536 -6.499999999999998
    vertex 78.6608224123208 68.96226024823987 -6.499999999999998
    vertex 79.09963879432905 68.38819463975146 -6.499999999999998
  endloop
endfacet
facet normal 0.0 0.0 -1.0
  outer loop
    vertex 79.09453423368595 65.62027755148536 -6.499999999999998
    vertex 79.09963879432905 68.38819463975146 -6.499999999999998
    vertex 79.37228144307174 66.28733649014548 -6.499999999999998
  endloop
endfacet
facet normal 0.0 0.0 -1.0
  outer loop
    vertex 79.37228144307174 66.28733649014548 -6.499999999999998
    vertex 79.09963879432905 68.38819463975146 -6.499999999999998
    vertex 79.37492375809438 67.72011580556145 -6.499999999999998
  endloop
endfacet
facet normal 0.0 0.0 -1.0
  outer loop
    vertex 79.37228144307174 66.28733649014548 -6.499999999999998
    vertex 79.37492375809438 67.72011580556145 -6.499999999999998
    vertex 79.4679170882661 67.0035522141674 -6.499999999999998
  endloop
endfacet
facet normal 0.0 0.0 -1.0
  outer loop
    vertex 74.02771855692824 67.72997705947553 -6.499999999999998
    vertex 74.02507624190561 66.29719774405956 -6.499999999999998
    vertex 73.93208291173389 67.01376133545361 -6.499999999999998
  endloop
endfacet
facet normal 0.0 0.0 -1.0
  outer loop
    vertex 74.02507624190561 66.29719774405956 -6.499999999999998
    vertex 74.02771855692824 67.72997705947553 -6.499999999999998
    vertex 74.30036120567094 65.62911890986953 -6.499999999999998
  endloop
endfacet
facet normal 0.0 0.0 -1.0
  outer loop
    vertex 74.30036120567094 65.62911890986953 -6.499999999999998
    vertex 74.02771855692824 67.72997705947553 -6.499999999999998
    vertex 74.30546576631404 68.39703599813565 -6.499999999999998
  endloop
endfacet
facet normal 0.0 0.0 -1.0
  outer loop
    vertex 74.30036120567094 65.62911890986953 -6.499999999999998
    vertex 74.30546576631404 68.39703599813565 -6.499999999999998
    vertex 74.7391775876792 65.05505330138112 -6.499999999999998
  endloop
endfacet
facet normal 0.0 0.0 -1.0
  outer loop
    vertex 74.7391775876792 65.05505330138112 -6.499999999999998
    vertex 74.30546576631404 68.39703599813565 -6.499999999999998
    vertex 74.74639652657062 68.9694791871313 -6.499999999999998
  endloop
endfacet
facet normal 0.0 0.0 -1.0
  outer loop
    vertex 74.7391775876792 65.05505330138112 -6.499999999999998
    vertex 74.74639652657062 68.9694791871313 -6.499999999999998
    vertex 75.0 67.0086567748105 -6.499999999999998
  endloop
endfacet
facet normal 0.0 0.0 -1.0
  outer loop
    vertex 74.7391775876792 65.05505330138112 -6.499999999999998
    vertex 75.0 67.0086567748105 -6.499999999999998
    vertex 75.31162077667484 64.61412254112456 -6.499999999999998
  endloop
endfacet
facet normal 0.0 0.0 -1.0
  outer loop
    vertex 75.31162077667484 64.61412254112456 -6.499999999999998
    vertex 75.0 67.0086567748105 -6.499999999999998
    vertex 75.05792609530859 66.56866439813622 -6.499999999999998
  endloop
endfacet
facet normal 0.0 0.0 -1.0
  outer loop
    vertex 75.31162077667484 64.61412254112456 -6.499999999999998
    vertex 75.05792609530859 66.56866439813622 -6.499999999999998
    vertex 75.22775681356646 66.15865677481051 -6.499999999999998
  endloop
endfacet
facet normal 0.0 0.0 -1.0
  outer loop
    vertex 75.31162077667484 64.61412254112456 -6.499999999999998
    vertex 75.22775681356646 66.15865677481051 -6.499999999999998
    vertex 75.49791847198287 65.80657524679337 -6.499999999999998
  endloop
endfacet
facet normal 0.0 0.0 -1.0
  outer loop
    vertex 75.31162077667484 64.61412254112456 -6.499999999999998
    vertex 75.49791847198287 65.80657524679337 -6.499999999999998
    vertex 75.97867971533498 64.33637533173875 -6.499999999999998
  endloop
endfacet
facet normal 0.0 0.0 -1.0
  outer loop
    vertex 75.97867971533498 64.33637533173875 -6.499999999999998
    vertex 75.49791847198287 65.80657524679337 -6.499999999999998
    vertex 75.85 65.53641358837696 -6.499999999999998
  endloop
endfacet
facet normal 0.0 0.0 -1.0
  outer loop
    vertex 75.97867971533498 64.33637533173875 -6.499999999999998
    vertex 75.85 65.53641358837696 -6.499999999999998
    vertex 76.2600076233257 65.36658287011909 -6.499999999999998
  endloop
endfacet
facet normal 0.0 0.0 -1.0
  outer loop
    vertex 75.97867971533498 64.33637533173875 -6.499999999999998
    vertex 76.2600076233257 65.36658287011909 -6.499999999999998
    vertex 76.69489543935688 64.24073968654439 -6.499999999999998
  endloop
endfacet
facet normal 0.0 0.0 -1.0
  outer loop
    vertex 76.69489543935688 64.24073968654439 -6.499999999999998
    vertex 76.2600076233257 65.36658287011909 -6.499999999999998
    vertex 76.69999999999999 65.3086567748105 -6.499999999999998
  endloop
endfacet
facet normal 0.0 0.0 -1.0
  outer loop
    vertex 76.69489543935688 64.24073968654439 -6.499999999999998
    vertex 76.69999999999999 65.3086567748105 -6.499999999999998
    vertex 77.41145903075095 64.33373301671611 -6.499999999999998
  endloop
endfacet
facet normal 0.0 0.0 -1.0
  outer loop
    vertex 77.41145903075095 64.33373301671611 -6.499999999999998
    vertex 76.69999999999999 65.3086567748105 -6.499999999999998
    vertex 77.13999237667429 65.36658287011909 -6.499999999999998
  endloop
endfacet
facet normal 0.0 0.0 -1.0
  outer loop
    vertex 77.41145903075095 64.33373301671611 -6.499999999999998
    vertex 77.13999237667429 65.36658287011909 -6.499999999999998
    vertex 77.55 65.53641358837696 -6.499999999999998
  endloop
endfacet
facet normal 0.0 0.0 -1.0
  outer loop
    vertex 77.41145903075095 64.33373301671611 -6.499999999999998
    vertex 77.55 65.53641358837696 -6.499999999999998
    vertex 78.07953786494096 64.60901798048145 -6.499999999999998
  endloop
endfacet
facet normal 0.0 0.0 -1.0
  outer loop
    vertex 78.07953786494096 64.60901798048145 -6.499999999999998
    vertex 77.55 65.53641358837696 -6.499999999999998
    vertex 77.90208152801712 65.80657524679337 -6.499999999999998
  endloop
endfacet
facet normal 0.0 0.0 -1.0
  outer loop
    vertex 78.07953786494096 64.60901798048145 -6.499999999999998
    vertex 77.90208152801712 65.80657524679337 -6.499999999999998
    vertex 78.17224318643353 66.15865677481051 -6.499999999999998
  endloop
endfacet
facet normal 0.0 0.0 -1.0
  outer loop
    vertex 78.07953786494096 64.60901798048145 -6.499999999999998
    vertex 78.17224318643353 66.15865677481051 -6.499999999999998
    vertex 78.65360347342937 65.0478343624897 -6.499999999999998
  endloop
endfacet
facet normal 0.0 0.0 -1.0
  outer loop
    vertex 78.65360347342937 65.0478343624897 -6.499999999999998
    vertex 78.17224318643353 66.15865677481051 -6.499999999999998
    vertex 78.3420739046914 66.56866439813622 -6.499999999999998
  endloop
endfacet
facet normal 0.0 0.0 -1.0
  outer loop
    vertex 78.65360347342937 65.0478343624897 -6.499999999999998
    vertex 78.3420739046914 66.56866439813622 -6.499999999999998
    vertex 78.39999999999999 67.0086567748105 -6.499999999999998
  endloop
endfacet
facet normal 0.923879532511286 -0.3826834323650919 0.0
  outer loop
    vertex 75.22775681356646 67.8586567748105 -6.499999999999998
    vertex 75.05792609530859 67.44864915148479 -1.4999999999999982
    vertex 75.05792609530859 67.44864915148479 -6.499999999999998
  endloop
endfacet
facet normal 0.923879532511286 -0.3826834323650919 0.0
  outer loop
    vertex 75.05792609530859 67.44864915148479 -1.4999999999999982
    vertex 75.22775681356646 67.8586567748105 -6.499999999999998
    vertex 75.22775681356646 67.8586567748105 -1.4999999999999982
  endloop
endfacet
facet normal -0.38097897656919694 0.9245837005984302 0.0
  outer loop
    vertex 75.32046213505903 69.40829556913955 -1.4999999999999982
    vertex 75.98854096924904 69.68358053290488 -6.499999999999998
    vertex 75.32046213505903 69.40829556913955 -6.499999999999998
  endloop
endfacet
facet normal -0.38097897656919694 0.9245837005984302 0.0
  outer loop
    vertex 75.98854096924904 69.68358053290488 -6.499999999999998
    vertex 75.32046213505903 69.40829556913955 -1.4999999999999982
    vertex 75.98854096924904 69.68358053290488 -1.4999999999999982
  endloop
endfacet
facet normal -0.7922293223159367 0.6102234843586668 0.0
  outer loop
    vertex 74.74639652657062 68.9694791871313 -1.4999999999999982
    vertex 74.30546576631404 68.39703599813565 -6.499999999999998
    vertex 74.30546576631404 68.39703599813565 -1.4999999999999982
  endloop
endfacet
facet normal -0.7922293223159367 0.6102234843586668 0.0
  outer loop
    vertex 74.30546576631404 68.39703599813565 -6.499999999999998
    vertex 74.74639652657062 68.9694791871313 -1.4999999999999982
    vertex 74.74639652657062 68.9694791871313 -6.499999999999998
  endloop
endfacet
facet normal -0.6087614290087224 -0.7933533402912338 -0.0
  outer loop
    vertex 77.90208152801712 68.21073830282764 -1.4999999999999982
    vertex 77.55 68.48089996124405 -6.499999999999998
    vertex 77.90208152801712 68.21073830282764 -6.499999999999998
  endloop
endfacet
facet normal -0.6087614290087224 -0.7933533402912338 -0.0
  outer loop
    vertex 77.55 68.48089996124405 -6.499999999999998
    vertex 77.90208152801712 68.21073830282764 -1.4999999999999982
    vertex 77.55 68.48089996124405 -1.4999999999999982
  endloop
endfacet
facet normal -0.0 -0.0 1.0
  outer loop
    vertex 74.02507624190561 66.29719774405956 -1.4999999999999982
    vertex 74.02771855692824 67.72997705947553 -1.4999999999999982
    vertex 73.93208291173389 67.01376133545361 -1.4999999999999982
  endloop
endfacet
facet normal -0.0 -0.0 1.0
  outer loop
    vertex 74.02771855692824 67.72997705947553 -1.4999999999999982
    vertex 74.02507624190561 66.29719774405956 -1.4999999999999982
    vertex 74.30036120567094 65.62911890986953 -1.4999999999999982
  endloop
endfacet
facet normal -0.0 -0.0 1.0
  outer loop
    vertex 74.02771855692824 67.72997705947553 -1.4999999999999982
    vertex 74.30036120567094 65.62911890986953 -1.4999999999999982
    vertex 74.30546576631404 68.39703599813565 -1.4999999999999982
  endloop
endfacet
facet normal -0.0 -0.0 1.0
  outer loop
    vertex 74.30546576631404 68.39703599813565 -1.4999999999999982
    vertex 74.30036120567094 65.62911890986953 -1.4999999999999982
    vertex 74.7391775876792 65.05505330138112 -1.4999999999999982
  endloop
endfacet
facet normal -0.0 -0.0 1.0
  outer loop
    vertex 74.30546576631404 68.39703599813565 -1.4999999999999982
    vertex 74.7391775876792 65.05505330138112 -1.4999999999999982
    vertex 74.74639652657062 68.9694791871313 -1.4999999999999982
  endloop
endfacet
facet normal -0.0 -0.0 1.0
  outer loop
    vertex 74.74639652657062 68.9694791871313 -1.4999999999999982
    vertex 74.7391775876792 65.05505330138112 -1.4999999999999982
    vertex 75.0 67.0086567748105 -1.4999999999999982
  endloop
endfacet
facet normal -0.0 -0.0 1.0
  outer loop
    vertex 75.0 67.0086567748105 -1.4999999999999982
    vertex 74.7391775876792 65.05505330138112 -1.4999999999999982
    vertex 75.31162077667484 64.61412254112456 -1.4999999999999982
  endloop
endfacet
facet normal -0.0 -0.0 1.0
  outer loop
    vertex 75.0 67.0086567748105 -1.4999999999999982
    vertex 75.31162077667484 64.61412254112456 -1.4999999999999982
    vertex 75.05792609530859 66.56866439813622 -1.4999999999999982
  endloop
endfacet
facet normal -0.0 -0.0 1.0
  outer loop
    vertex 75.05792609530859 66.56866439813622 -1.4999999999999982
    vertex 75.31162077667484 64.61412254112456 -1.4999999999999982
    vertex 75.22775681356646 66.15865677481051 -1.4999999999999982
  endloop
endfacet
facet normal -0.0 -0.0 1.0
  outer loop
    vertex 75.22775681356646 66.15865677481051 -1.4999999999999982
    vertex 75.31162077667484 64.61412254112456 -1.4999999999999982
    vertex 75.49791847198287 65.80657524679337 -1.4999999999999982
  endloop
endfacet
facet normal -0.0 -0.0 1.0
  outer loop
    vertex 75.49791847198287 65.80657524679337 -1.4999999999999982
    vertex 75.31162077667484 64.61412254112456 -1.4999999999999982
    vertex 75.97867971533498 64.33637533173875 -1.4999999999999982
  endloop
endfacet
facet normal -0.0 -0.0 1.0
  outer loop
    vertex 75.49791847198287 65.80657524679337 -1.4999999999999982
    vertex 75.97867971533498 64.33637533173875 -1.4999999999999982
    vertex 75.85 65.53641358837696 -1.4999999999999982
  endloop
endfacet
facet normal -0.0 -0.0 1.0
  outer loop
    vertex 75.85 65.53641358837696 -1.4999999999999982
    vertex 75.97867971533498 64.33637533173875 -1.4999999999999982
    vertex 76.2600076233257 65.36658287011909 -1.4999999999999982
  endloop
endfacet
facet normal -0.0 -0.0 1.0
  outer loop
    vertex 76.2600076233257 65.36658287011909 -1.4999999999999982
    vertex 75.97867971533498 64.33637533173875 -1.4999999999999982
    vertex 76.69489543935688 64.24073968654439 -1.4999999999999982
  endloop
endfacet
facet normal -0.0 -0.0 1.0
  outer loop
    vertex 76.2600076233257 65.36658287011909 -1.4999999999999982
    vertex 76.69489543935688 64.24073968654439 -1.4999999999999982
    vertex 76.69999999999999 65.3086567748105 -1.4999999999999982
  endloop
endfacet
facet normal -0.0 -0.0 1.0
  outer loop
    vertex 76.69999999999999 65.3086567748105 -1.4999999999999982
    vertex 76.69489543935688 64.24073968654439 -1.4999999999999982
    vertex 77.41145903075095 64.33373301671611 -1.4999999999999982
  endloop
endfacet
facet normal -0.0 -0.0 1.0
  outer loop
    vertex 76.69999999999999 65.3086567748105 -1.4999999999999982
    vertex 77.41145903075095 64.33373301671611 -1.4999999999999982
    vertex 77.13999237667429 65.36658287011909 -1.4999999999999982
  endloop
endfacet
facet normal -0.0 -0.0 1.0
  outer loop
    vertex 77.13999237667429 65.36658287011909 -1.4999999999999982
    vertex 77.41145903075095 64.33373301671611 -1.4999999999999982
    vertex 77.55 65.53641358837696 -1.4999999999999982
  endloop
endfacet
facet normal -0.0 -0.0 1.0
  outer loop
    vertex 77.55 65.53641358837696 -1.4999999999999982
    vertex 77.41145903075095 64.33373301671611 -1.4999999999999982
    vertex 78.07953786494096 64.60901798048145 -1.4999999999999982
  endloop
endfacet
facet normal -0.0 -0.0 1.0
  outer loop
    vertex 77.55 65.53641358837696 -1.4999999999999982
    vertex 78.07953786494096 64.60901798048145 -1.4999999999999982
    vertex 77.90208152801712 65.80657524679337 -1.4999999999999982
  endloop
endfacet
facet normal -0.0 -0.0 1.0
  outer loop
    vertex 77.90208152801712 65.80657524679337 -1.4999999999999982
    vertex 78.07953786494096 64.60901798048145 -1.4999999999999982
    vertex 78.17224318643353 66.15865677481051 -1.4999999999999982
  endloop
endfacet
facet normal -0.0 -0.0 1.0
  outer loop
    vertex 78.17224318643353 66.15865677481051 -1.4999999999999982
    vertex 78.07953786494096 64.60901798048145 -1.4999999999999982
    vertex 78.65360347342937 65.0478343624897 -1.4999999999999982
  endloop
endfacet
facet normal -0.0 -0.0 1.0
  outer loop
    vertex 78.17224318643353 66.15865677481051 -1.4999999999999982
    vertex 78.65360347342937 65.0478343624897 -1.4999999999999982
    vertex 78.3420739046914 66.56866439813622 -1.4999999999999982
  endloop
endfacet
facet normal -0.0 -0.0 1.0
  outer loop
    vertex 78.3420739046914 66.56866439813622 -1.4999999999999982
    vertex 78.65360347342937 65.0478343624897 -1.4999999999999982
    vertex 78.39999999999999 67.0086567748105 -1.4999999999999982
  endloop
endfacet
facet normal -0.0 -0.0 1.0
  outer loop
    vertex 74.74639652657062 68.9694791871313 -1.4999999999999982
    vertex 75.05792609530859 67.44864915148479 -1.4999999999999982
    vertex 75.32046213505903 69.40829556913955 -1.4999999999999982
  endloop
endfacet
facet normal -0.0 -0.0 1.0
  outer loop
    vertex 75.05792609530859 67.44864915148479 -1.4999999999999982
    vertex 74.74639652657062 68.9694791871313 -1.4999999999999982
    vertex 75.0 67.0086567748105 -1.4999999999999982
  endloop
endfacet
facet normal -0.0 -0.0 1.0
  outer loop
    vertex 75.32046213505903 69.40829556913955 -1.4999999999999982
    vertex 75.05792609530859 67.44864915148479 -1.4999999999999982
    vertex 75.22775681356646 67.8586567748105 -1.4999999999999982
  endloop
endfacet
facet normal -0.0 -0.0 1.0
  outer loop
    vertex 75.32046213505903 69.40829556913955 -1.4999999999999982
    vertex 75.22775681356646 67.8586567748105 -1.4999999999999982
    vertex 75.49791847198287 68.21073830282764 -1.4999999999999982
  endloop
endfacet
facet normal -0.0 -0.0 1.0
  outer loop
    vertex 75.32046213505903 69.40829556913955 -1.4999999999999982
    vertex 75.49791847198287 68.21073830282764 -1.4999999999999982
    vertex 75.98854096924904 69.68358053290488 -1.4999999999999982
  endloop
endfacet
facet normal -0.0 -0.0 1.0
  outer loop
    vertex 75.98854096924904 69.68358053290488 -1.4999999999999982
    vertex 75.49791847198287 68.21073830282764 -1.4999999999999982
    vertex 75.85 68.48089996124405 -1.4999999999999982
  endloop
endfacet
facet normal -0.0 -0.0 1.0
  outer loop
    vertex 75.98854096924904 69.68358053290488 -1.4999999999999982
    vertex 75.85 68.48089996124405 -1.4999999999999982
    vertex 76.2600076233257 68.65073067950192 -1.4999999999999982
  endloop
endfacet
facet normal -0.0 -0.0 1.0
  outer loop
    vertex 75.98854096924904 69.68358053290488 -1.4999999999999982
    vertex 76.2600076233257 68.65073067950192 -1.4999999999999982
    vertex 76.7051045606431 69.7765738630766 -1.4999999999999982
  endloop
endfacet
facet normal -0.0 -0.0 1.0
  outer loop
    vertex 76.7051045606431 69.7765738630766 -1.4999999999999982
    vertex 76.2600076233257 68.65073067950192 -1.4999999999999982
    vertex 76.69999999999999 68.70865677481049 -1.4999999999999982
  endloop
endfacet
facet normal -0.0 -0.0 1.0
  outer loop
    vertex 76.7051045606431 69.7765738630766 -1.4999999999999982
    vertex 76.69999999999999 68.70865677481049 -1.4999999999999982
    vertex 77.13999237667429 68.65073067950192 -1.4999999999999982
  endloop
endfacet
facet normal -0.0 -0.0 1.0
  outer loop
    vertex 76.7051045606431 69.7765738630766 -1.4999999999999982
    vertex 77.13999237667429 68.65073067950192 -1.4999999999999982
    vertex 77.42132028466501 69.68093821788226 -1.4999999999999982
  endloop
endfacet
facet normal -0.0 -0.0 1.0
  outer loop
    vertex 77.42132028466501 69.68093821788226 -1.4999999999999982
    vertex 77.13999237667429 68.65073067950192 -1.4999999999999982
    vertex 77.55 68.48089996124405 -1.4999999999999982
  endloop
endfacet
facet normal -0.0 -0.0 1.0
  outer loop
    vertex 77.42132028466501 69.68093821788226 -1.4999999999999982
    vertex 77.55 68.48089996124405 -1.4999999999999982
    vertex 78.08837922332513 69.40319100849645 -1.4999999999999982
  endloop
endfacet
facet normal -0.0 -0.0 1.0
  outer loop
    vertex 78.08837922332513 69.40319100849645 -1.4999999999999982
    vertex 77.55 68.48089996124405 -1.4999999999999982
    vertex 77.90208152801712 68.21073830282764 -1.4999999999999982
  endloop
endfacet
facet normal -0.0 -0.0 1.0
  outer loop
    vertex 78.08837922332513 69.40319100849645 -1.4999999999999982
    vertex 77.90208152801712 68.21073830282764 -1.4999999999999982
    vertex 78.17224318643353 67.8586567748105 -1.4999999999999982
  endloop
endfacet
facet normal -0.0 -0.0 1.0
  outer loop
    vertex 78.08837922332513 69.40319100849645 -1.4999999999999982
    vertex 78.17224318643353 67.8586567748105 -1.4999999999999982
    vertex 78.6608224123208 68.96226024823987 -1.4999999999999982
  endloop
endfacet
facet normal -0.0 -0.0 1.0
  outer loop
    vertex 78.6608224123208 68.96226024823987 -1.4999999999999982
    vertex 78.17224318643353 67.8586567748105 -1.4999999999999982
    vertex 78.3420739046914 67.44864915148479 -1.4999999999999982
  endloop
endfacet
facet normal -0.0 -0.0 1.0
  outer loop
    vertex 78.6608224123208 68.96226024823987 -1.4999999999999982
    vertex 78.3420739046914 67.44864915148479 -1.4999999999999982
    vertex 78.39999999999999 67.0086567748105 -1.4999999999999982
  endloop
endfacet
facet normal -0.0 -0.0 1.0
  outer loop
    vertex 78.6608224123208 68.96226024823987 -1.4999999999999982
    vertex 78.39999999999999 67.0086567748105 -1.4999999999999982
    vertex 78.65360347342937 65.0478343624897 -1.4999999999999982
  endloop
endfacet
facet normal -0.0 -0.0 1.0
  outer loop
    vertex 78.6608224123208 68.96226024823987 -1.4999999999999982
    vertex 78.65360347342937 65.0478343624897 -1.4999999999999982
    vertex 79.09453423368595 65.62027755148536 -1.4999999999999982
  endloop
endfacet
facet normal -0.0 -0.0 1.0
  outer loop
    vertex 78.6608224123208 68.96226024823987 -1.4999999999999982
    vertex 79.09453423368595 65.62027755148536 -1.4999999999999982
    vertex 79.09963879432905 68.38819463975146 -1.4999999999999982
  endloop
endfacet
facet normal -0.0 -0.0 1.0
  outer loop
    vertex 79.09963879432905 68.38819463975146 -1.4999999999999982
    vertex 79.09453423368595 65.62027755148536 -1.4999999999999982
    vertex 79.37228144307174 66.28733649014548 -1.4999999999999982
  endloop
endfacet
facet normal -0.0 -0.0 1.0
  outer loop
    vertex 79.09963879432905 68.38819463975146 -1.4999999999999982
    vertex 79.37228144307174 66.28733649014548 -1.4999999999999982
    vertex 79.37492375809438 67.72011580556145 -1.4999999999999982
  endloop
endfacet
facet normal -0.0 -0.0 1.0
  outer loop
    vertex 79.37492375809438 67.72011580556145 -1.4999999999999982
    vertex 79.37228144307174 66.28733649014548 -1.4999999999999982
    vertex 79.4679170882661 67.0035522141674 -1.4999999999999982
  endloop
endfacet
facet normal -0.7933533402912338 -0.6087614290087224 -0.0
  outer loop
    vertex 77.90208152801712 68.21073830282764 -1.4999999999999982
    vertex 78.17224318643353 67.8586567748105 -6.499999999999998
    vertex 78.17224318643353 67.8586567748105 -1.4999999999999982
  endloop
endfacet
facet normal -0.7933533402912338 -0.6087614290087224 -0.0
  outer loop
    vertex 78.17224318643353 67.8586567748105 -6.499999999999998
    vertex 77.90208152801712 68.21073830282764 -1.4999999999999982
    vertex 77.90208152801712 68.21073830282764 -6.499999999999998
  endloop
endfacet
facet normal -0.3826834323650919 -0.923879532511286 -0.0
  outer loop
    vertex 77.55 68.48089996124405 -1.4999999999999982
    vertex 77.13999237667429 68.65073067950192 -6.499999999999998
    vertex 77.55 68.48089996124405 -6.499999999999998
  endloop
endfacet
facet normal -0.3826834323650919 -0.923879532511286 -0.0
  outer loop
    vertex 77.13999237667429 68.65073067950192 -6.499999999999998
    vertex 77.55 68.48089996124405 -1.4999999999999982
    vertex 77.13999237667429 68.65073067950192 -1.4999999999999982
  endloop
endfacet
facet normal -0.6102234843586668 -0.7922293223159367 -0.0
  outer loop
    vertex 75.31162077667484 64.61412254112456 -1.4999999999999982
    vertex 74.7391775876792 65.05505330138112 -6.499999999999998
    vertex 75.31162077667484 64.61412254112456 -6.499999999999998
  endloop
endfacet
facet normal -0.6102234843586668 -0.7922293223159367 -0.0
  outer loop
    vertex 74.7391775876792 65.05505330138112 -6.499999999999998
    vertex 75.31162077667484 64.61412254112456 -1.4999999999999982
    vertex 74.7391775876792 65.05505330138112 -1.4999999999999982
  endloop
endfacet
facet normal -0.3826834323650919 0.923879532511286 0.0
  outer loop
    vertex 77.13999237667429 65.36658287011909 -1.4999999999999982
    vertex 77.55 65.53641358837696 -6.499999999999998
    vertex 77.13999237667429 65.36658287011909 -6.499999999999998
  endloop
endfacet
facet normal -0.3826834323650919 0.923879532511286 0.0
  outer loop
    vertex 77.55 65.53641358837696 -6.499999999999998
    vertex 77.13999237667429 65.36658287011909 -1.4999999999999982
    vertex 77.55 65.53641358837696 -1.4999999999999982
  endloop
endfacet
facet normal 0.130526192220053 -0.9914448613738103 0.0
  outer loop
    vertex 76.69999999999999 68.70865677481049 -1.4999999999999982
    vertex 76.2600076233257 68.65073067950192 -6.499999999999998
    vertex 76.69999999999999 68.70865677481049 -6.499999999999998
  endloop
endfacet
facet normal 0.130526192220053 -0.9914448613738103 0.0
  outer loop
    vertex 76.2600076233257 68.65073067950192 -6.499999999999998
    vertex 76.69999999999999 68.70865677481049 -1.4999999999999982
    vertex 76.2600076233257 68.65073067950192 -1.4999999999999982
  endloop
endfacet
facet normal 0.132354378282499 0.9912024609278638 0.0
  outer loop
    vertex 76.7051045606431 69.7765738630766 -1.4999999999999982
    vertex 77.42132028466501 69.68093821788226 -6.499999999999998
    vertex 76.7051045606431 69.7765738630766 -6.499999999999998
  endloop
endfacet
facet normal 0.132354378282499 0.9912024609278638 0.0
  outer loop
    vertex 77.42132028466501 69.68093821788226 -6.499999999999998
    vertex 76.7051045606431 69.7765738630766 -1.4999999999999982
    vertex 77.42132028466501 69.68093821788226 -1.4999999999999982
  endloop
endfacet
facet normal -0.130526192220053 -0.9914448613738103 -0.0
  outer loop
    vertex 77.13999237667429 68.65073067950192 -1.4999999999999982
    vertex 76.69999999999999 68.70865677481049 -6.499999999999998
    vertex 77.13999237667429 68.65073067950192 -6.499999999999998
  endloop
endfacet
facet normal -0.130526192220053 -0.9914448613738103 -0.0
  outer loop
    vertex 76.69999999999999 68.70865677481049 -6.499999999999998
    vertex 77.13999237667429 68.65073067950192 -1.4999999999999982
    vertex 76.69999999999999 68.70865677481049 -1.4999999999999982
  endloop
endfacet
facet normal -0.9912024609278638 0.132354378282499 0.0
  outer loop
    vertex 74.02771855692824 67.72997705947553 -1.4999999999999982
    vertex 73.93208291173389 67.01376133545361 -6.499999999999998
    vertex 73.93208291173389 67.01376133545361 -1.4999999999999982
  endloop
endfacet
facet normal -0.9912024609278638 0.132354378282499 0.0
  outer loop
    vertex 73.93208291173389 67.01376133545361 -6.499999999999998
    vertex 74.02771855692824 67.72997705947553 -1.4999999999999982
    vertex 74.02771855692824 67.72997705947553 -6.499999999999998
  endloop
endfacet
facet normal -0.6087614290087224 0.7933533402912338 0.0
  outer loop
    vertex 77.55 65.53641358837696 -1.4999999999999982
    vertex 77.90208152801712 65.80657524679337 -6.499999999999998
    vertex 77.55 65.53641358837696 -6.499999999999998
  endloop
endfacet
facet normal -0.6087614290087224 0.7933533402912338 0.0
  outer loop
    vertex 77.90208152801712 65.80657524679337 -6.499999999999998
    vertex 77.55 65.53641358837696 -1.4999999999999982
    vertex 77.90208152801712 65.80657524679337 -1.4999999999999982
  endloop
endfacet
facet normal -0.7933533402912338 0.6087614290087224 0.0
  outer loop
    vertex 78.17224318643353 66.15865677481051 -1.4999999999999982
    vertex 77.90208152801712 65.80657524679337 -6.499999999999998
    vertex 77.90208152801712 65.80657524679337 -1.4999999999999982
  endloop
endfacet
facet normal -0.7933533402912338 0.6087614290087224 0.0
  outer loop
    vertex 77.90208152801712 65.80657524679337 -6.499999999999998
    vertex 78.17224318643353 66.15865677481051 -1.4999999999999982
    vertex 78.17224318643353 66.15865677481051 -6.499999999999998
  endloop
endfacet
facet normal 0.7933533402912338 -0.6087614290087224 0.0
  outer loop
    vertex 75.49791847198287 68.21073830282764 -6.499999999999998
    vertex 75.22775681356646 67.8586567748105 -1.4999999999999982
    vertex 75.22775681356646 67.8586567748105 -6.499999999999998
  endloop
endfacet
facet normal 0.7933533402912338 -0.6087614290087224 0.0
  outer loop
    vertex 75.22775681356646 67.8586567748105 -1.4999999999999982
    vertex 75.49791847198287 68.21073830282764 -6.499999999999998
    vertex 75.49791847198287 68.21073830282764 -1.4999999999999982
  endloop
endfacet
facet normal 0.9914448613738103 0.130526192220053 0.0
  outer loop
    vertex 75.0 67.0086567748105 -6.499999999999998
    vertex 75.05792609530859 66.56866439813622 -1.4999999999999982
    vertex 75.05792609530859 66.56866439813622 -6.499999999999998
  endloop
endfacet
facet normal 0.9914448613738103 0.130526192220053 0.0
  outer loop
    vertex 75.05792609530859 66.56866439813622 -1.4999999999999982
    vertex 75.0 67.0086567748105 -6.499999999999998
    vertex 75.0 67.0086567748105 -1.4999999999999982
  endloop
endfacet
facet normal -0.6072973032476037 0.7944746600541696 0.0
  outer loop
    vertex 74.74639652657062 68.9694791871313 -1.4999999999999982
    vertex 75.32046213505903 69.40829556913955 -6.499999999999998
    vertex 74.74639652657062 68.9694791871313 -6.499999999999998
  endloop
endfacet
facet normal -0.6072973032476037 0.7944746600541696 0.0
  outer loop
    vertex 75.32046213505903 69.40829556913955 -6.499999999999998
    vertex 74.74639652657062 68.9694791871313 -1.4999999999999982
    vertex 75.32046213505903 69.40829556913955 -1.4999999999999982
  endloop
endfacet
facet normal 0.7944746600541696 0.6072973032476037 0.0
  outer loop
    vertex 78.6608224123208 68.96226024823987 -6.499999999999998
    vertex 79.09963879432905 68.38819463975146 -1.4999999999999982
    vertex 79.09963879432905 68.38819463975146 -6.499999999999998
  endloop
endfacet
facet normal 0.7944746600541696 0.6072973032476037 0.0
  outer loop
    vertex 79.09963879432905 68.38819463975146 -1.4999999999999982
    vertex 78.6608224123208 68.96226024823987 -6.499999999999998
    vertex 78.6608224123208 68.96226024823987 -1.4999999999999982
  endloop
endfacet
facet normal 0.3826834323650919 0.923879532511286 0.0
  outer loop
    vertex 75.85 65.53641358837696 -1.4999999999999982
    vertex 76.2600076233257 65.36658287011909 -6.499999999999998
    vertex 75.85 65.53641358837696 -6.499999999999998
  endloop
endfacet
facet normal 0.3826834323650919 0.923879532511286 0.0
  outer loop
    vertex 76.2600076233257 65.36658287011909 -6.499999999999998
    vertex 75.85 65.53641358837696 -1.4999999999999982
    vertex 76.2600076233257 65.36658287011909 -1.4999999999999982
  endloop
endfacet
facet normal 0.9914448613738103 -0.130526192220053 0.0
  outer loop
    vertex 75.05792609530859 67.44864915148479 -6.499999999999998
    vertex 75.0 67.0086567748105 -1.4999999999999982
    vertex 75.0 67.0086567748105 -6.499999999999998
  endloop
endfacet
facet normal 0.9914448613738103 -0.130526192220053 0.0
  outer loop
    vertex 75.0 67.0086567748105 -1.4999999999999982
    vertex 75.05792609530859 67.44864915148479 -6.499999999999998
    vertex 75.05792609530859 67.44864915148479 -1.4999999999999982
  endloop
endfacet
facet normal 0.3843865866461095 0.9231722222892937 0.0
  outer loop
    vertex 77.42132028466501 69.68093821788226 -1.4999999999999982
    vertex 78.08837922332513 69.40319100849645 -6.499999999999998
    vertex 77.42132028466501 69.68093821788226 -6.499999999999998
  endloop
endfacet
facet normal 0.3843865866461095 0.9231722222892937 0.0
  outer loop
    vertex 78.08837922332513 69.40319100849645 -6.499999999999998
    vertex 77.42132028466501 69.68093821788226 -1.4999999999999982
    vertex 78.08837922332513 69.40319100849645 -1.4999999999999982
  endloop
endfacet
facet normal -0.9914448613738103 0.130526192220053 0.0
  outer loop
    vertex 78.39999999999999 67.0086567748105 -1.4999999999999982
    vertex 78.3420739046914 66.56866439813622 -6.499999999999998
    vertex 78.3420739046914 66.56866439813622 -1.4999999999999982
  endloop
endfacet
facet normal -0.9914448613738103 0.130526192220053 0.0
  outer loop
    vertex 78.3420739046914 66.56866439813622 -6.499999999999998
    vertex 78.39999999999999 67.0086567748105 -1.4999999999999982
    vertex 78.39999999999999 67.0086567748105 -6.499999999999998
  endloop
endfacet
facet normal 0.7922293223159367 -0.6102234843586668 0.0
  outer loop
    vertex 79.09453423368595 65.62027755148536 -6.499999999999998
    vertex 78.65360347342937 65.0478343624897 -1.4999999999999982
    vertex 78.65360347342937 65.0478343624897 -6.499999999999998
  endloop
endfacet
facet normal 0.7922293223159367 -0.6102234843586668 0.0
  outer loop
    vertex 78.65360347342937 65.0478343624897 -1.4999999999999982
    vertex 79.09453423368595 65.62027755148536 -6.499999999999998
    vertex 79.09453423368595 65.62027755148536 -1.4999999999999982
  endloop
endfacet
facet normal -0.923879532511286 0.3826834323650919 0.0
  outer loop
    vertex 78.3420739046914 66.56866439813622 -1.4999999999999982
    vertex 78.17224318643353 66.15865677481051 -6.499999999999998
    vertex 78.17224318643353 66.15865677481051 -1.4999999999999982
  endloop
endfacet
facet normal -0.923879532511286 0.3826834323650919 0.0
  outer loop
    vertex 78.17224318643353 66.15865677481051 -6.499999999999998
    vertex 78.3420739046914 66.56866439813622 -1.4999999999999982
    vertex 78.3420739046914 66.56866439813622 -6.499999999999998
  endloop
endfacet
facet normal -0.9914448613738103 -0.130526192220053 -0.0
  outer loop
    vertex 78.3420739046914 67.44864915148479 -1.4999999999999982
    vertex 78.39999999999999 67.0086567748105 -6.499999999999998
    vertex 78.39999999999999 67.0086567748105 -1.4999999999999982
  endloop
endfacet
facet normal -0.9914448613738103 -0.130526192220053 -0.0
  outer loop
    vertex 78.39999999999999 67.0086567748105 -6.499999999999998
    vertex 78.3420739046914 67.44864915148479 -1.4999999999999982
    vertex 78.3420739046914 67.44864915148479 -6.499999999999998
  endloop
endfacet
facet normal 0.3826834323650919 -0.923879532511286 0.0
  outer loop
    vertex 76.2600076233257 68.65073067950192 -1.4999999999999982
    vertex 75.85 68.48089996124405 -6.499999999999998
    vertex 76.2600076233257 68.65073067950192 -6.499999999999998
  endloop
endfacet
facet normal 0.3826834323650919 -0.923879532511286 0.0
  outer loop
    vertex 75.85 68.48089996124405 -6.499999999999998
    vertex 76.2600076233257 68.65073067950192 -1.4999999999999982
    vertex 75.85 68.48089996124405 -1.4999999999999982
  endloop
endfacet
facet normal 0.6087614290087224 0.7933533402912338 0.0
  outer loop
    vertex 75.49791847198287 65.80657524679337 -1.4999999999999982
    vertex 75.85 65.53641358837696 -6.499999999999998
    vertex 75.49791847198287 65.80657524679337 -6.499999999999998
  endloop
endfacet
facet normal 0.6087614290087224 0.7933533402912338 0.0
  outer loop
    vertex 75.85 65.53641358837696 -6.499999999999998
    vertex 75.49791847198287 65.80657524679337 -1.4999999999999982
    vertex 75.85 65.53641358837696 -1.4999999999999982
  endloop
endfacet
facet normal 0.923879532511286 0.3826834323650919 0.0
  outer loop
    vertex 75.05792609530859 66.56866439813622 -6.499999999999998
    vertex 75.22775681356646 66.15865677481051 -1.4999999999999982
    vertex 75.22775681356646 66.15865677481051 -6.499999999999998
  endloop
endfacet
facet normal 0.923879532511286 0.3826834323650919 0.0
  outer loop
    vertex 75.22775681356646 66.15865677481051 -1.4999999999999982
    vertex 75.05792609530859 66.56866439813622 -6.499999999999998
    vertex 75.05792609530859 66.56866439813622 -1.4999999999999982
  endloop
endfacet
facet normal -0.130526192220053 0.9914448613738103 0.0
  outer loop
    vertex 76.69999999999999 65.3086567748105 -1.4999999999999982
    vertex 77.13999237667429 65.36658287011909 -6.499999999999998
    vertex 76.69999999999999 65.3086567748105 -6.499999999999998
  endloop
endfacet
facet normal -0.130526192220053 0.9914448613738103 0.0
  outer loop
    vertex 77.13999237667429 65.36658287011909 -6.499999999999998
    vertex 76.69999999999999 65.3086567748105 -1.4999999999999982
    vertex 77.13999237667429 65.36658287011909 -1.4999999999999982
  endloop
endfacet
facet normal 0.12869756223513223 -0.9916838898937174 0.0
  outer loop
    vertex 77.41145903075095 64.33373301671611 -1.4999999999999982
    vertex 76.69489543935688 64.24073968654439 -6.499999999999998
    vertex 77.41145903075095 64.33373301671611 -6.499999999999998
  endloop
endfacet
facet normal 0.12869756223513223 -0.9916838898937174 0.0
  outer loop
    vertex 76.69489543935688 64.24073968654439 -6.499999999999998
    vertex 77.41145903075095 64.33373301671611 -1.4999999999999982
    vertex 76.69489543935688 64.24073968654439 -1.4999999999999982
  endloop
endfacet
facet normal 0.6087614290087224 -0.7933533402912338 0.0
  outer loop
    vertex 75.85 68.48089996124405 -1.4999999999999982
    vertex 75.49791847198287 68.21073830282764 -6.499999999999998
    vertex 75.85 68.48089996124405 -6.499999999999998
  endloop
endfacet
facet normal 0.6087614290087224 -0.7933533402912338 0.0
  outer loop
    vertex 75.49791847198287 68.21073830282764 -6.499999999999998
    vertex 75.85 68.48089996124405 -1.4999999999999982
    vertex 75.49791847198287 68.21073830282764 -1.4999999999999982
  endloop
endfacet
facet normal 0.38097897656919694 -0.9245837005984302 0.0
  outer loop
    vertex 78.07953786494096 64.60901798048145 -1.4999999999999982
    vertex 77.41145903075095 64.33373301671611 -6.499999999999998
    vertex 78.07953786494096 64.60901798048145 -6.499999999999998
  endloop
endfacet
facet normal 0.38097897656919694 -0.9245837005984302 0.0
  outer loop
    vertex 77.41145903075095 64.33373301671611 -6.499999999999998
    vertex 78.07953786494096 64.60901798048145 -1.4999999999999982
    vertex 77.41145903075095 64.33373301671611 -1.4999999999999982
  endloop
endfacet
facet normal -0.132354378282499 -0.9912024609278638 -0.0
  outer loop
    vertex 76.69489543935688 64.24073968654439 -1.4999999999999982
    vertex 75.97867971533498 64.33637533173875 -6.499999999999998
    vertex 76.69489543935688 64.24073968654439 -6.499999999999998
  endloop
endfacet
facet normal -0.132354378282499 -0.9912024609278638 -0.0
  outer loop
    vertex 75.97867971533498 64.33637533173875 -6.499999999999998
    vertex 76.69489543935688 64.24073968654439 -1.4999999999999982
    vertex 75.97867971533498 64.33637533173875 -1.4999999999999982
  endloop
endfacet
endsolid top_noumotor_placaRGB
